<?xml version="1.0" encoding="utf-8"?>
<!-- Generator: Adobe Illustrator 25.0.0, SVG Export Plug-In . SVG Version: 6.00 Build 0)  -->
<svg version="1.1" id="Layer_1" xmlns="http://www.w3.org/2000/svg" xmlns:xlink="http://www.w3.org/1999/xlink" x="0px" y="0px"
	 viewBox="0 0 500 160" style="enable-background:new 0 0 500 160;" xml:space="preserve">
<style type="text/css">
	.st0{display:none;}
	.st1{fill:#0473AA;}
	.st2{opacity:0.25;fill:#252A2B;}
	.st3{fill:#0593C4;}
	.st4{opacity:0.25;fill:#1C1E1E;}
</style>
<g id="Layer_2" class="st0">
</g>
<g id="LOGO_500PX">
	<g id="CARLOS_1_">
		<g id="c_2_">
			<path class="st1" d="M177.38,58.74c-1.94,1.94-4.15,3.4-6.62,4.37c-2.48,0.97-4.99,1.46-7.53,1.46c-2.54,0-5.04-0.48-7.48-1.46
				c-2.44-0.97-4.63-2.42-6.57-4.37c-1.87-1.94-3.31-4.1-4.32-6.47c-1-2.37-1.51-4.9-1.51-7.58c0-2.68,0.5-5.22,1.51-7.63
				c1-2.41,2.44-4.58,4.32-6.52c1.94-1.94,4.13-3.4,6.57-4.37c2.44-0.97,4.93-1.46,7.48-1.46c2.54,0,5.05,0.49,7.53,1.46
				c1.85,0.73,3.55,1.73,5.11,2.99c0.02-0.3,0.14-0.6,0.42-0.88c2.77-2.71,5.02-5.94,8.02-8.42c0.32-0.27,0.65-0.53,0.98-0.79
				c-0.01-0.01-0.03-0.01-0.04-0.02c-0.94-0.62-1.27-1.72-1.06-2.7c-0.97-0.35-2.02-0.51-3.03-0.72c-1.45-0.3-3.59-0.71-4.29-2.17
				c-0.17-0.35-0.22-0.74-0.14-1.09c-0.51-0.23-1.03-0.44-1.56-0.6c-2.99-0.86-6.07-1.17-9.16-1.37
				c-4.97-0.33-10.21-0.87-15.06,0.58c-1.22,0.37-2.4,0.87-3.48,1.56c-1,0.64-1.75,1.57-2.6,2.39c-1.96,1.92-4.37,3.48-6.55,5.13
				c-2.1,1.59-3.83,3.22-5.1,5.55c-1.14,2.07-2.3,4.33-3,6.59c-0.8,2.57-0.92,5.27-0.94,7.94c-0.01,1.51-0.12,2.95-0.48,4.42
				c-0.3,1.24-0.71,2.46-0.91,3.73c0.15,0.16,0.28,0.36,0.35,0.62c0.88,3.29,0.84,6.7,1.27,10.04c1.73,2.98,3.69,5.83,5.55,8.73
				c1.08,1.69,2.39,3.31,3.84,4.76c2.78,2.45,5.8,4.41,9.07,5.86c2.42,0.77,4.85,1.52,7.34,2.09c2.91,0.66,6.01,1.15,8.98,0.67
				c0.52-0.08,1.05,0.04,1.4,0.38c3.94-0.25,7.78-1.1,11.49-2.57c4.48-1.77,8.53-4.47,12.15-8.08L177.38,58.74z"/>
			<path class="st2" d="M153.05,78.72c3.12,0.92,6.29,1.76,9.52,2.17c1.44,0.18,2.91,0.26,4.36,0.33c0.8,0.04,1.59,0.05,2.38-0.03
				c-2.03-0.25-6.45-0.7-9.51-1.86c-11.97-4.51-15.27-12.94-17.48-22.47c-1.93-8.36-0.37-15.56,0.99-18.12
				c1.42-2.69,3.82-5.76,3.82-5.76c0.06-0.08,0.11-0.15,0.14-0.19c0.01-0.02,0.03-0.04,0.04-0.06c0.04-0.04,0.1-0.13,0.19-0.24
				c0.03-0.03,0.04-0.05,0.05-0.06c0.08-0.11,0.18-0.25,0.33-0.42c0.26-0.31,0.39-0.47,0.42-0.51c0.11-0.13,0.46-0.54,0.8-0.9
				c0,0,0.85-0.9,1.92-1.72c0.16-0.12,0.53-0.39,0.97-0.71c0.08-0.06,0.16-0.11,0.21-0.15c0.81-0.55,1.6-0.97,1.89-1.12
				c0,0,0.39-0.2,0.93-0.45c0.12-0.06,0.22-0.1,0.33-0.14c0.13-0.05,0.14-0.05,0.36-0.14c0.24-0.09,0.26-0.1,0.48-0.19
				c0.04-0.02,0.14-0.05,0.26-0.09c0.11-0.04,0.2-0.07,0.29-0.1c0.29-0.1,0.44-0.15,0.52-0.18c0,0,0.25-0.08,0.59-0.17
				c0.06-0.02,0.13-0.03,0.19-0.05c0.08-0.02,0.1-0.03,0.13-0.04c0.08-0.02,0.14-0.05,0.18-0.06c0.73-0.56,1.52-1.01,2.26-1.55
				c0.13-0.11,0.24-0.22,0.35-0.34c0.04-0.07,0.09-0.13,0.13-0.21c0.22-0.47,0.73-0.77,1.2-0.92c0.52-0.17,1.08-0.04,1.55,0.2
				c0.4,0.21,0.74,0.67,0.88,1.1c0.36-0.16,0.73-0.32,1.09-0.49c0.88-0.4,1.75-0.81,2.64-1.19c0.66-0.28,1.32-0.55,1.99-0.81
				c0.06-1.21,0.16-2.42,0.28-3.62c-0.2-1.05-0.33-2.13-0.39-3.24c-0.7-0.1-1.37-0.4-1.94-0.96c-0.82-0.81-1.08-1.95-0.99-3.13
				c-0.39-0.07-0.76-0.13-1.06-0.16c-2.02-0.22-4.07-0.29-6.1-0.05c-4,0.46-7.86,1.85-11.71,2.96c-0.69,0.2-1.27,0.04-1.69-0.3
				c-3,1.63-5.78,3.7-8.32,6.22c-3.48,3.45-6.14,7.38-7.98,11.79c-0.55,1.33-2.68,6.68-2.76,14.07c-0.03,2.5-0.03,7.75,2.34,13.9
				c3.63,9.4,10.28,14.45,12.4,16.01c0.45,0.33,4.17,3.04,8.91,4.86C151.7,78.89,152.28,78.5,153.05,78.72z"/>
			<path class="st3" d="M128.74,58.25c-2.38-6.16-2.37-11.4-2.34-13.9c0.08-7.39,2.21-12.75,2.76-14.07
				c1.84-4.41,4.5-8.34,7.98-11.79c3.61-3.58,7.69-6.27,12.25-8.06c4.55-1.79,9.18-2.69,13.9-2.69c4.72,0,9.33,0.89,13.85,2.69
				c4.52,1.79,8.58,4.48,12.2,8.06c-3.98,3.95-7.96,7.89-11.94,11.84c-1.7-1.38-7.79-5.97-16.13-5.44
				c-9.13,0.58-16.17,6.84-19.34,13.55c-3.48,7.35-1.88,14.27-0.99,18.12c1.99,8.61,7.95,18.88,17.48,22.47
				c4.1,1.54,10.64,1.83,10.61,2.07c0,0.02-0.4,0.07-1.2,0.16c-0.27,0.03-0.67,0.08-1.14,0.12c-0.21,0.02-0.39,0.03-0.45,0.04
				c-0.16,0.01-0.36,0.03-0.6,0.04c-0.17,0.01-0.41,0.02-0.7,0.04c-0.26,0.01-0.63,0.02-1.07,0.03c-0.39,0.01-0.7,0.01-0.87,0
				c-0.22,0-0.62-0.01-1.12-0.02c-0.14-0.01-0.97-0.04-1.89-0.12c-1.82-0.16-3.43-0.46-3.71-0.51c-0.26-0.05-2.65-0.51-5.08-1.33
				c-5.28-1.79-9.56-4.91-10.05-5.27C139.02,72.7,132.36,67.65,128.74,58.25z"/>
		</g>
		<path class="st1" d="M236.5,81.62l-2.91-8.93h-23.19l-3.01,8.93h-17.97l25.09-73.67h16.06l23.79,73.67H236.5z M216.23,55.72h11.94
			l-5.82-17.87L216.23,55.72z"/>
		<path class="st1" d="M281.67,62.55c-0.87,0.13-1.74,0.24-2.61,0.3c-0.87,0.07-1.77,0.13-2.71,0.2v18.57h-16.96V8.25h16.96
			c4.22,0.07,8.16,0.84,11.84,2.31c3.68,1.47,6.91,3.44,9.69,5.91c2.78,2.47,4.95,5.35,6.52,8.62c1.57,3.27,2.36,6.78,2.36,10.52
			c0,3.94-0.84,7.6-2.51,10.98c-1.67,3.38-4.01,6.3-7.03,8.77l16.26,26.26h-19.97L281.67,62.55z M276.35,45.99
			c1.81-0.07,3.53-0.38,5.17-0.95c1.64-0.57,3.08-1.32,4.32-2.26c1.24-0.94,2.21-2.02,2.91-3.26c0.7-1.24,1.05-2.56,1.05-3.96
			c0-1.4-0.35-2.71-1.05-3.91c-0.7-1.2-1.67-2.27-2.91-3.21c-1.24-0.94-2.68-1.69-4.32-2.26c-1.64-0.57-3.36-0.89-5.17-0.95V45.99z"
			/>
		<g>
			<g id="velocidade_net_3_">
				<path class="st1" d="M364.78,81.53h-44.01V7.85h17.02v56.75h26.99V81.53z"/>
				<path class="st3" d="M362.87,68.01c0.37-0.81,0.02-1.75-0.77-2.14c-0.78-0.38-1.71-0.05-2.07,0.76c-0.06,0.14-0.13,0.2-0.29,0.2
					c-0.85-0.01-1.69,0-2.54,0.01c0,0,0,0,0,0c-1.22,0.01-11.39-0.37-18.13-0.27c-5.03,0-5.01,0.3-5.03,0.45
					c-0.02,0.17,1.09,0.33,1.05,0.49c6.88,0.18,21.24,0.33,21.43,0.33c1.05-0.02,2.1-0.02,3.15-0.03c0.2,0,0.29,0.08,0.41,0.24
					c0.2,0.26,0.43,0.55,0.71,0.7C361.55,69.16,362.52,68.79,362.87,68.01z M361.68,67.89c-0.29,0.12-0.65-0.02-0.78-0.32
					c-0.14-0.32,0-0.69,0.32-0.83c0.3-0.13,0.64,0.01,0.77,0.31C362.13,67.37,361.99,67.76,361.68,67.89z"/>
				<path class="st3" d="M362.79,73.26c0.37-0.81,0.02-1.75-0.77-2.14c-0.78-0.38-1.71-0.05-2.07,0.76c-0.06,0.14-0.13,0.2-0.29,0.2
					c-0.85-0.01-1.69,0-2.54,0.01c0,0,0,0,0,0c-1.22,0.01-14.37-0.37-21.11-0.27c-0.02,0.15,1.34,0.78,1.3,0.94
					c6.88,0.18,18.96,0.33,19.14,0.33c1.05-0.02,2.1-0.02,3.15-0.03c0.2,0,0.29,0.08,0.41,0.24c0.2,0.26,0.43,0.55,0.71,0.7
					C361.47,74.41,362.43,74.04,362.79,73.26z M361.6,73.14c-0.29,0.12-0.65-0.02-0.78-0.32c-0.14-0.32,0-0.69,0.32-0.83
					c0.3-0.13,0.64,0.01,0.77,0.31C362.05,72.62,361.9,73.01,361.6,73.14z"/>
				<path class="st3" d="M362.86,79.13c0.37-0.81,0.02-1.75-0.77-2.14c-0.78-0.38-1.71-0.05-2.07,0.76c-0.06,0.14-0.13,0.2-0.29,0.2
					c-0.85-0.01-1.69,0-2.54,0.01c0,0,0,0,0,0c-1.22,0.01-11.39-0.37-18.13-0.27c-0.02,0.15-0.03,0.3-0.05,0.45
					c-0.02,0.17-0.06,0.33-0.1,0.49c6.88,0.18,17.42,0.33,17.6,0.33c1.05-0.02,2.1-0.02,3.15-0.03c0.2,0,0.29,0.08,0.41,0.24
					c0.2,0.26,0.43,0.55,0.71,0.7C361.53,80.28,362.5,79.91,362.86,79.13z M361.67,79.01c-0.29,0.12-0.65-0.02-0.78-0.32
					c-0.14-0.32,0-0.69,0.32-0.83c0.3-0.13,0.64,0.01,0.77,0.31C362.11,78.49,361.97,78.88,361.67,79.01z"/>
			</g>
			<path class="st3" d="M352.88,81.32l-32.11,0.21V7.85h17.02l-0.96,32.47l-0.65,23.84c0,3.13-0.64,6.1,2.14,8.89L352.88,81.32z"/>
		</g>
		<g>
			<path class="st1" d="M437.45,30.33c-1.94-4.48-4.58-8.38-7.92-11.69c-3.34-3.31-7.25-5.94-11.73-7.88
				c-1.54-0.67-3.12-1.21-4.73-1.65v18.15c1.66,0.92,3.17,2.04,4.5,3.37c1.81,1.81,3.23,3.91,4.27,6.32
				c1.04,2.41,1.56,4.99,1.56,7.73c0,2.74-0.52,5.32-1.56,7.73c-1.04,2.41-2.46,4.52-4.27,6.32c-1.81,1.81-3.91,3.23-6.32,4.27
				c-2.41,1.04-4.99,1.56-7.73,1.56c-2.74,0-5.32-0.52-7.73-1.56c-2.41-1.04-4.52-2.46-6.32-4.27c-1.81-1.81-3.23-3.91-4.27-6.32
				c-1.04-2.41-1.56-4.98-1.56-7.73c0-2.74,0.52-5.32,1.56-7.73c1.04-2.41,2.46-4.52,4.27-6.32c1.25-1.25,2.64-2.29,4.18-3.17V9.17
				c-1.53,0.43-3.04,0.95-4.51,1.59c-4.48,1.94-8.37,4.57-11.68,7.88c-3.31,3.31-5.93,7.21-7.87,11.69
				c-1.94,4.48-2.91,9.27-2.91,14.35c0,5.09,0.97,9.87,2.91,14.35c1.94,4.48,4.56,8.38,7.87,11.69c3.31,3.31,7.2,5.94,11.68,7.88
				c4.48,1.94,9.26,2.91,14.33,2.91c5.08,0,9.86-0.97,14.33-2.91c4.48-1.94,8.39-4.57,11.73-7.88c3.34-3.31,5.98-7.21,7.92-11.69
				c1.94-4.48,2.91-9.27,2.91-14.35C440.36,39.6,439.39,34.81,437.45,30.33z"/>
			<rect x="397.03" y="3.5" class="st1" width="13" height="26.46"/>
		</g>
		<path class="st1" d="M467.36,83.03c-2.34,0-4.67-0.32-6.98-0.95c-2.31-0.64-4.5-1.62-6.57-2.96c-3.61-2.34-6.42-5.37-8.43-9.08
			c-2.01-3.71-3.01-7.78-3.01-12.2h16.96c0,2.01,0.43,3.56,1.31,4.67c0.87,1.1,1.64,1.86,2.31,2.26c1.2,0.8,2.51,1.24,3.91,1.3
			c1.41,0.07,2.78-0.2,4.12-0.8c0.94-0.4,1.69-0.9,2.26-1.51c0.57-0.6,1-1.19,1.31-1.76c0.3-0.57,0.48-1.12,0.55-1.66
			c0.07-0.54,0.1-0.97,0.1-1.3c0-0.33-0.03-0.77-0.1-1.3c-0.07-0.53-0.25-1.1-0.55-1.71c-0.3-0.6-0.74-1.19-1.31-1.76
			c-0.57-0.57-1.32-1.09-2.26-1.56c-0.74-0.33-1.52-0.64-2.36-0.9c-0.84-0.27-1.72-0.57-2.66-0.9c-1.67-0.53-3.41-1.14-5.22-1.81
			c-1.81-0.67-3.61-1.57-5.42-2.71c-2.34-1.47-4.32-3.31-5.92-5.52c-1.61-2.21-2.76-4.58-3.46-7.13c-0.7-2.54-0.94-5.17-0.7-7.88
			c0.23-2.71,0.99-5.3,2.26-7.78c1.2-2.27,2.71-4.25,4.52-5.92c1.81-1.67,3.81-2.99,6.02-3.96c2.21-0.97,4.58-1.56,7.13-1.76
			c2.54-0.2,5.12,0.03,7.73,0.7c2.54,0.6,4.84,1.56,6.9,2.86c2.06,1.3,3.84,2.88,5.34,4.72c1.5,1.84,2.64,3.9,3.44,6.17
			c0.8,2.28,1.2,4.65,1.2,7.13h-16.88c0-1.54-0.49-2.61-1.46-3.21c-0.97-0.6-1.82-1-2.56-1.2c-0.13,0-0.45-0.05-0.95-0.15
			c-0.5-0.1-1.07-0.1-1.71,0c-0.64,0.1-1.29,0.34-1.96,0.7c-0.67,0.37-1.2,0.95-1.61,1.76c-0.54,1.07-0.64,2.19-0.3,3.36
			c0.33,1.17,1,2.09,2.01,2.76c0.94,0.54,1.97,1.02,3.11,1.46c1.14,0.44,2.34,0.85,3.61,1.25c1.14,0.34,2.29,0.7,3.46,1.1
			c1.17,0.4,2.35,0.87,3.55,1.41c4.39,2.01,7.83,4.95,10.33,8.83c2.49,3.88,3.74,8.2,3.74,12.95c0,4.68-1.25,8.97-3.74,12.85
			c-2.5,3.88-5.94,6.83-10.33,8.83c-1.73,0.8-3.5,1.39-5.3,1.76C470.97,82.84,469.17,83.03,467.36,83.03z"/>
	</g>
	<g id="ALEXANDRE_1_">
		<path class="st1" d="M158.26,138.01l-1.97-5.74h-15.66l-2.03,5.74h-12.14l16.95-47.36h10.85l16.07,47.36H158.26z M144.56,121.36
			h8.07l-3.93-11.49L144.56,121.36z"/>
		<path class="st1" d="M203.36,138.01h-29.63V90.58h11.46v36.52h18.17V138.01z"/>
		<path class="st1" d="M239.23,101.55h-20.48v7.16h16.61v10.91h-16.61v7.49h20.48v10.91h-31.94v-47.3l31.94-0.06V101.55z"/>
		<path class="st1" d="M285.34,90.26l-14.65,23.1l15.94,24.65h-13.49l-9.09-14.07l-8.95,14.07h-13.36l15.53-24.59l-14.92-23.17
			h13.43l8.2,12.65l7.93-12.65H285.34z"/>
		<path class="st1" d="M318.56,138.01l-1.97-5.74h-15.66l-2.03,5.74h-12.14l16.95-47.36h10.85l16.07,47.36H318.56z M304.87,121.36
			h8.07L309,109.88L304.87,121.36z"/>
		<path class="st1" d="M362.71,90.65h11.46v47.36h-12.41l-16.27-27.62v27.62h-11.46V90.78h12.48l16.21,27.55V90.65z"/>
		<path class="st1" d="M390.37,90.45c3.3,0.17,6.41,0.93,9.32,2.26c2.92,1.33,5.45,3.08,7.59,5.23c2.15,2.15,3.84,4.65,5.09,7.49
			c1.24,2.84,1.86,5.87,1.86,9.1c0,3.18-0.61,6.16-1.83,8.94c-1.22,2.77-2.91,5.22-5.05,7.32c-2.15,2.11-4.67,3.8-7.56,5.07
			c-2.89,1.27-6.04,1.99-9.43,2.16h-11.46V90.39h11.46V90.45z M390.37,127.04c1.76-0.17,3.4-0.61,4.92-1.32
			c1.51-0.71,2.82-1.61,3.93-2.71c1.11-1.1,1.98-2.38,2.61-3.84c0.63-1.46,0.95-3.01,0.95-4.65c0-1.68-0.32-3.28-0.95-4.81
			c-0.63-1.53-1.52-2.88-2.64-4.07c-1.13-1.18-2.44-2.15-3.93-2.9c-1.49-0.75-3.12-1.22-4.88-1.39V127.04z"/>
		<path class="st1" d="M431.94,125.75c-0.59,0.09-1.18,0.15-1.76,0.19c-0.59,0.04-1.2,0.09-1.83,0.13v11.94h-11.46V90.84h11.46
			c2.85,0.04,5.51,0.54,8,1.48c2.48,0.95,4.67,2.21,6.54,3.8c1.88,1.59,3.35,3.44,4.41,5.54c1.06,2.11,1.59,4.36,1.59,6.77
			c0,2.54-0.57,4.89-1.69,7.06c-1.13,2.17-2.71,4.05-4.75,5.64l10.98,16.88h-13.49L431.94,125.75z M428.35,115.1
			c1.22-0.04,2.38-0.25,3.49-0.61c1.11-0.36,2.08-0.85,2.92-1.45c0.84-0.6,1.49-1.3,1.97-2.1c0.47-0.8,0.71-1.65,0.71-2.55
			s-0.24-1.74-0.71-2.52c-0.47-0.77-1.13-1.46-1.97-2.06c-0.84-0.6-1.81-1.09-2.92-1.45c-1.11-0.37-2.27-0.57-3.49-0.61V115.1z"/>
		<path class="st1" d="M489.64,101.55h-20.48v7.16h16.61v10.91h-16.61v7.49h20.48v10.91h-31.94v-47.3l31.94-0.06V101.55z"/>
	</g>
	<g id="seta_1_">
		<path class="st1" d="M78.84,6.5c0,0-5.89-1.72-14.48,7.36S34.68,45.01,34.68,45.01s-5.66,7.98,1.05,14.74s25.15,19.2,25.15,19.2
			l59.68-51.59c0,0,10.1-8.06,1.37-10.37c-9.5-2.51-24.16-6.11-24.16-6.11"/>
		<path class="st3" d="M80.68,14.42c-1.06-2.86-4.22-4.33-7.12-3.32c-2.84,0.99-4.3,4.08-3.23,6.92c0.19,0.51,0.19,0.81-0.22,1.21
			c-2.09,2.06-4.16,4.15-6.2,6.27c0,0,0,0,0,0c-2.97,3.04-28.85,27.06-45.17,43.83c0.33,0.4,0.66,0.81,0.98,1.22
			c0.35,0.46,0.66,0.93,0.95,1.42C38,55.5,64.23,30.03,64.67,29.58c2.52-2.63,5.11-5.19,7.65-7.81c0.49-0.51,0.92-0.52,1.59-0.43
			c1.14,0.15,2.4,0.29,3.46-0.03C80.23,20.45,81.71,17.18,80.68,14.42z M77.46,17.03c-0.41,1.01-1.64,1.53-2.68,1.13
			c-1.13-0.43-1.69-1.68-1.25-2.79c0.41-1.04,1.61-1.56,2.65-1.14C77.3,14.67,77.89,15.97,77.46,17.03z"/>
		<path class="st3" d="M95.37,20.7c-1.06-2.86-4.22-4.33-7.12-3.32c-2.84,0.99-4.3,4.08-3.23,6.92c0.19,0.51,0.19,0.81-0.22,1.21
			c-2.09,2.06-4.16,4.15-6.2,6.27c0,0,0,0,0,0c-2.97,3.04-28.85,27.06-45.17,43.83c0.33,0.4,0.66,0.81,0.98,1.22
			c0.35,0.46,0.66,0.93,0.95,1.42c17.33-16.47,43.57-41.94,44.01-42.4c2.52-2.63,5.11-5.19,7.65-7.81c0.49-0.51,0.92-0.52,1.59-0.43
			c1.14,0.15,2.4,0.29,3.46-0.03C94.92,26.73,96.39,23.46,95.37,20.7z M92.14,23.32c-0.41,1.01-1.64,1.53-2.68,1.13
			c-1.13-0.43-1.69-1.68-1.25-2.79c0.41-1.04,1.61-1.56,2.65-1.14C91.98,20.96,92.57,22.26,92.14,23.32z"/>
		<path class="st3" d="M108.87,26.61c-1.06-2.86-4.22-4.33-7.12-3.32c-2.84,0.99-4.3,4.08-3.23,6.92c0.19,0.51,0.19,0.81-0.22,1.21
			c-2.09,2.06-4.16,4.15-6.2,6.27c0,0,0,0,0,0c-2.97,3.04-28.85,27.06-45.17,43.83c0.33,0.4,0.66,0.81,0.98,1.22
			c0.35,0.46,0.66,0.93,0.95,1.42c17.33-16.47,43.57-41.94,44.01-42.4c2.52-2.63,5.11-5.19,7.65-7.81c0.49-0.51,0.92-0.52,1.59-0.43
			c1.14,0.15,2.4,0.29,3.46-0.03C108.41,32.64,109.89,29.37,108.87,26.61z M105.64,29.23c-0.41,1.01-1.64,1.53-2.68,1.13
			c-1.13-0.43-1.69-1.68-1.25-2.79c0.41-1.04,1.61-1.56,2.65-1.14C105.48,26.87,106.07,28.17,105.64,29.23z"/>
		<path class="st4" d="M110.16,138.26c-4.13-4.71-8.43-9.15-13-13.43c-4.47-4.19-8.84-8.38-13.04-12.84
			c-2.96-3.14-5.94-6.31-9.7-7.2c-2.96-0.7-5.01-2.24-6.27-4.18c-0.02,0.01-0.04,0.02-0.06,0.03c-4.68,2.91-10.92,1.37-14.16-2.83
			c-1.52-1.97-2.25-4.17-2.36-6.65c-0.14-3.08,1.43-5.47,3.22-7.76c1.81-2.32,3.55-3.01,6.1-4.44c0.13-0.07,1.33-1.29,1.46-1.36
			c-12.09-11.83-21.51-21.05-23.1-22.58c-4.97-4.79-2.6-12.06-2.6-12.06l-6.38,7.26c0.29,6.59,2.66,12,3.33,18.58
			c0.8,7.83-1.8,14.69-5.94,21.21c-1.76,2.78-4.14,4.29-6.67,4.86l47.67,55.15c1.26,1.46,3.23,2.11,5.12,1.68l40.14-9.1
			C112.7,141.13,111.41,139.69,110.16,138.26z"/>
		<path class="st3" d="M35.25,44.42c0,0-2.06,7.55,2.91,12.34c4.09,3.93,60.06,58.76,79.84,78.13c2.96,2.9,1.54,7.93-2.51,8.85
			l-42.79,9.7c-1.89,0.43-3.85-0.22-5.12-1.68L11.09,86.4c-0.1-0.11-0.2-0.22-0.3-0.32c-1-0.97-7.2-7.7,2.15-17.73"/>
	</g>
	<g id="SUBLEGENDA_1_">
		<path class="st3" d="M129.82,154.41c-0.46-0.17-0.87-0.42-1.22-0.74c-0.35-0.32-0.62-0.71-0.82-1.17c-0.2-0.46-0.3-0.98-0.3-1.56
			c0-0.73,0.14-1.43,0.42-2.1c0.28-0.67,0.67-1.27,1.16-1.79c0.49-0.52,1.06-0.93,1.72-1.24c0.66-0.31,1.36-0.46,2.1-0.46
			c0.83,0,1.53,0.18,2.1,0.55c0.57,0.36,1,0.83,1.3,1.38l-0.87,0.54c-0.27-0.47-0.61-0.84-1.02-1.12c-0.4-0.27-0.93-0.41-1.59-0.41
			c-0.58,0-1.13,0.13-1.65,0.39c-0.51,0.26-0.96,0.6-1.35,1.03c-0.39,0.43-0.69,0.92-0.91,1.48c-0.22,0.56-0.33,1.13-0.33,1.72
			c0,0.44,0.07,0.83,0.21,1.18c0.14,0.35,0.34,0.64,0.59,0.89c0.25,0.24,0.54,0.43,0.89,0.56c0.34,0.13,0.72,0.19,1.13,0.19
			c0.61,0,1.13-0.11,1.56-0.33c0.43-0.22,0.84-0.52,1.23-0.89l0.68,0.67c-0.21,0.21-0.43,0.4-0.68,0.59
			c-0.24,0.18-0.51,0.34-0.8,0.48c-0.29,0.14-0.6,0.25-0.94,0.32c-0.34,0.08-0.71,0.12-1.11,0.12
			C130.78,154.67,130.28,154.58,129.82,154.41z"/>
		<path class="st3" d="M143.15,145.5h3.24c0.87,0,1.55,0.17,2.05,0.5c0.5,0.33,0.8,0.8,0.89,1.4c0.1,0.68-0.03,1.3-0.4,1.87
			c-0.21,0.44-0.56,0.8-1.02,1.07c-0.47,0.28-1.03,0.47-1.69,0.57l1.85,3.6h-1.17l-1.78-3.5h-2.44l-0.94,3.5h-1.02L143.15,145.5z
			 M145.37,150.1c0.66,0,1.22-0.1,1.68-0.29c0.46-0.19,0.79-0.45,0.98-0.78c0.27-0.37,0.39-0.79,0.36-1.26
			c-0.04-0.41-0.23-0.74-0.57-0.97s-0.83-0.35-1.49-0.35h-2.42l-0.99,3.67H145.37z"/>
		<path class="st3" d="M156.96,145.5h1.02l-2.42,9h-1.02L156.96,145.5z"/>
		<path class="st3" d="M168.33,145.44h0.98l1.67,9.07h-1.04l-0.41-2.38h-4.91l-1.7,2.38h-1.12L168.33,145.44z M169.36,151.22
			l-0.81-4.62l-3.29,4.62H169.36z"/>
		<path class="st3" d="M180.11,156.5l-0.84-0.44l1.41-1.48c-0.43-0.08-0.83-0.22-1.19-0.42c-0.36-0.21-0.68-0.46-0.95-0.77
			c-0.27-0.31-0.48-0.67-0.63-1.08c-0.15-0.41-0.23-0.87-0.23-1.36c0-0.73,0.14-1.43,0.42-2.1s0.67-1.27,1.16-1.79
			c0.49-0.52,1.06-0.93,1.72-1.24c0.66-0.31,1.36-0.46,2.1-0.46c0.83,0,1.53,0.18,2.1,0.55c0.57,0.36,1,0.83,1.3,1.38l-0.87,0.54
			c-0.27-0.47-0.61-0.84-1.02-1.12c-0.4-0.27-0.93-0.41-1.59-0.41c-0.58,0-1.13,0.13-1.65,0.39c-0.51,0.26-0.96,0.6-1.35,1.03
			c-0.39,0.43-0.69,0.92-0.91,1.48c-0.22,0.56-0.33,1.13-0.33,1.72c0,0.44,0.07,0.83,0.21,1.18c0.14,0.35,0.34,0.64,0.59,0.89
			c0.25,0.24,0.54,0.43,0.89,0.56c0.34,0.13,0.72,0.19,1.13,0.19c0.61,0,1.13-0.11,1.56-0.33c0.43-0.22,0.84-0.52,1.23-0.89
			l0.68,0.67c-0.21,0.21-0.43,0.4-0.68,0.59c-0.24,0.18-0.51,0.34-0.8,0.48c-0.29,0.14-0.6,0.25-0.94,0.32
			c-0.34,0.08-0.71,0.12-1.11,0.12h-0.06L180.11,156.5z"/>
		<path class="st3" d="M196.57,145.44h0.98l1.67,9.07h-1.04l-0.41-2.38h-4.91l-1.7,2.38h-1.12L196.57,145.44z M197.6,151.22
			l-0.81-4.62l-3.29,4.62H197.6z M195.12,144.47c0.21-0.45,0.44-0.78,0.68-1.02c0.24-0.23,0.51-0.35,0.82-0.35
			c0.21,0,0.37,0.04,0.5,0.12c0.13,0.08,0.27,0.18,0.41,0.31c0.15,0.13,0.26,0.22,0.34,0.28c0.08,0.06,0.18,0.09,0.29,0.09
			c0.15,0,0.29-0.07,0.41-0.2c0.12-0.13,0.25-0.32,0.39-0.57l0.63,0.28c-0.21,0.44-0.44,0.77-0.68,1.01
			c-0.24,0.24-0.51,0.35-0.83,0.35c-0.2,0-0.36-0.04-0.49-0.12c-0.13-0.08-0.27-0.18-0.41-0.3c-0.15-0.14-0.26-0.23-0.35-0.29
			c-0.09-0.06-0.18-0.08-0.3-0.08c-0.15,0-0.28,0.06-0.4,0.19c-0.12,0.13-0.25,0.32-0.4,0.57L195.12,144.47z"/>
		<path class="st3" d="M208.32,154.37c-0.48-0.2-0.9-0.48-1.25-0.83c-0.35-0.35-0.62-0.77-0.81-1.24c-0.19-0.48-0.29-0.99-0.29-1.54
			c0-0.69,0.14-1.37,0.41-2.02c0.27-0.65,0.64-1.23,1.11-1.73c0.47-0.5,1.02-0.9,1.66-1.21s1.33-0.46,2.08-0.46
			c0.58,0,1.12,0.1,1.6,0.3c0.48,0.2,0.9,0.48,1.25,0.83c0.35,0.35,0.62,0.76,0.81,1.23c0.19,0.47,0.29,0.98,0.29,1.53
			c0,0.69-0.14,1.37-0.41,2.03c-0.27,0.66-0.64,1.23-1.11,1.74c-0.47,0.5-1.02,0.9-1.66,1.21c-0.64,0.3-1.33,0.46-2.08,0.46
			C209.34,154.67,208.81,154.57,208.32,154.37z M211.63,153.35c0.5-0.25,0.93-0.59,1.3-1c0.36-0.42,0.65-0.89,0.86-1.43
			c0.21-0.54,0.32-1.08,0.32-1.64c0-0.42-0.07-0.81-0.21-1.18c-0.14-0.37-0.33-0.69-0.59-0.95c-0.26-0.27-0.57-0.48-0.93-0.63
			c-0.36-0.15-0.77-0.23-1.22-0.23c-0.59,0-1.14,0.13-1.64,0.38c-0.5,0.25-0.93,0.59-1.3,1c-0.36,0.42-0.65,0.89-0.86,1.43
			c-0.21,0.54-0.32,1.08-0.32,1.64c0,0.43,0.07,0.83,0.21,1.19c0.14,0.36,0.33,0.68,0.59,0.95c0.26,0.27,0.57,0.48,0.93,0.63
			s0.77,0.23,1.22,0.23C210.58,153.73,211.13,153.6,211.63,153.35z"/>
		<path class="st3" d="M231.34,145.5h6.44l-0.26,0.93h-5.43l-0.82,3.07h4.85l-0.26,0.93h-4.84l-0.85,3.15h5.49l-0.24,0.93h-6.51
			L231.34,145.5z"/>
		<path class="st3" d="M252.6,145.5h0.95l1.94,4.91l4.59-4.91h1.13l-2.42,9h-1.03l1.96-7.29l-4.57,4.82h-0.05l-1.97-4.81l-1.96,7.28
			h-1L252.6,145.5z"/>
		<path class="st3" d="M271.49,145.44h0.98l1.67,9.07h-1.04l-0.41-2.38h-4.91l-1.7,2.38h-1.12L271.49,145.44z M272.52,151.22
			l-0.81-4.62l-3.29,4.62H272.52z"/>
		<path class="st3" d="M282.57,145.5h0.94l3.67,7.31l1.97-7.31h0.99l-2.42,9h-0.81l-3.76-7.47l-2.01,7.47h-0.99L282.57,145.5z"/>
		<path class="st3" d="M297.42,154.43c-0.41-0.14-0.75-0.34-1.02-0.6c-0.27-0.26-0.48-0.56-0.62-0.91
			c-0.14-0.35-0.21-0.74-0.21-1.16c0-0.47,0.06-0.94,0.19-1.4l1.29-4.86h1.03l-1.36,5.13c-0.04,0.14-0.08,0.29-0.1,0.46
			s-0.03,0.36-0.03,0.55c0,0.29,0.05,0.56,0.14,0.82c0.09,0.25,0.24,0.47,0.44,0.66c0.2,0.18,0.44,0.33,0.73,0.43
			c0.29,0.1,0.64,0.15,1.04,0.15c0.38,0,0.74-0.07,1.07-0.2c0.34-0.13,0.65-0.34,0.93-0.62c0.24-0.24,0.46-0.54,0.65-0.91
			c0.19-0.36,0.36-0.8,0.5-1.29l1.4-5.18h1.02l-1.44,5.36c-0.31,1.14-0.78,2.03-1.41,2.66c-0.75,0.75-1.68,1.12-2.8,1.12
			C298.3,154.64,297.82,154.57,297.42,154.43z"/>
		<path class="st3" d="M313.31,146.44h-3.04l0.26-0.94h7.09l-0.26,0.94h-3.04l-2.16,8.06h-1.02L313.31,146.44z"/>
		<path class="st3" d="M323.86,145.5h6.44l-0.26,0.93h-5.43l-0.82,3.07h4.85l-0.26,0.93h-4.84l-0.85,3.15h5.49l-0.24,0.93h-6.51
			L323.86,145.5z"/>
		<path class="st3" d="M336.76,145.5h0.94l3.67,7.31l1.97-7.31h0.99l-2.42,9h-0.81l-3.76-7.47l-2.01,7.47h-0.99L336.76,145.5z"/>
		<path class="st3" d="M352.07,156.5l-0.84-0.44l1.41-1.48c-0.43-0.08-0.83-0.22-1.19-0.42c-0.37-0.21-0.68-0.46-0.95-0.77
			c-0.27-0.31-0.48-0.67-0.63-1.08c-0.15-0.41-0.23-0.87-0.23-1.36c0-0.73,0.14-1.43,0.42-2.1s0.67-1.27,1.16-1.79
			c0.49-0.52,1.06-0.93,1.72-1.24c0.66-0.31,1.36-0.46,2.1-0.46c0.83,0,1.53,0.18,2.1,0.55c0.57,0.36,1,0.83,1.3,1.38l-0.87,0.54
			c-0.27-0.47-0.61-0.84-1.02-1.12c-0.4-0.27-0.93-0.41-1.6-0.41c-0.58,0-1.13,0.13-1.65,0.39c-0.51,0.26-0.96,0.6-1.35,1.03
			c-0.39,0.43-0.69,0.92-0.91,1.48c-0.22,0.56-0.33,1.13-0.33,1.72c0,0.44,0.07,0.83,0.21,1.18c0.14,0.35,0.34,0.64,0.59,0.89
			c0.25,0.24,0.54,0.43,0.89,0.56c0.34,0.13,0.72,0.19,1.13,0.19c0.61,0,1.13-0.11,1.56-0.33c0.43-0.22,0.84-0.52,1.23-0.89
			l0.68,0.67c-0.21,0.21-0.43,0.4-0.68,0.59c-0.24,0.18-0.51,0.34-0.8,0.48c-0.29,0.14-0.6,0.25-0.94,0.32
			c-0.34,0.08-0.71,0.12-1.11,0.12h-0.06L352.07,156.5z"/>
		<path class="st3" d="M368.54,145.44h0.98l1.67,9.07h-1.04l-0.41-2.38h-4.91l-1.7,2.38H362L368.54,145.44z M369.57,151.22
			l-0.81-4.62l-3.29,4.62H369.57z M367.08,144.47c0.21-0.45,0.44-0.78,0.68-1.02s0.51-0.35,0.82-0.35c0.21,0,0.37,0.04,0.5,0.12
			c0.13,0.08,0.27,0.18,0.41,0.31c0.15,0.13,0.26,0.22,0.34,0.28c0.08,0.06,0.18,0.09,0.29,0.09c0.15,0,0.29-0.07,0.41-0.2
			c0.12-0.13,0.25-0.32,0.39-0.57l0.63,0.28c-0.21,0.44-0.44,0.77-0.67,1.01c-0.24,0.24-0.51,0.35-0.83,0.35
			c-0.2,0-0.36-0.04-0.49-0.12c-0.13-0.08-0.27-0.18-0.41-0.3c-0.15-0.14-0.26-0.23-0.35-0.29c-0.09-0.06-0.18-0.08-0.3-0.08
			c-0.15,0-0.28,0.06-0.4,0.19c-0.12,0.13-0.25,0.32-0.4,0.57L367.08,144.47z"/>
		<path class="st3" d="M380.29,154.37c-0.48-0.2-0.9-0.48-1.25-0.83s-0.62-0.77-0.81-1.24s-0.29-0.99-0.29-1.54
			c0-0.69,0.13-1.37,0.41-2.02c0.27-0.65,0.64-1.23,1.11-1.73c0.47-0.5,1.02-0.9,1.66-1.21c0.64-0.3,1.33-0.46,2.08-0.46
			c0.58,0,1.12,0.1,1.6,0.3c0.48,0.2,0.9,0.48,1.25,0.83c0.35,0.35,0.62,0.76,0.81,1.23c0.19,0.47,0.29,0.98,0.29,1.53
			c0,0.69-0.13,1.37-0.41,2.03c-0.27,0.66-0.64,1.23-1.11,1.74c-0.47,0.5-1.02,0.9-1.66,1.21c-0.64,0.3-1.33,0.46-2.08,0.46
			C381.31,154.67,380.77,154.57,380.29,154.37z M383.59,153.35c0.5-0.25,0.93-0.59,1.3-1c0.36-0.42,0.65-0.89,0.86-1.43
			c0.21-0.54,0.32-1.08,0.32-1.64c0-0.42-0.07-0.81-0.21-1.18c-0.14-0.37-0.33-0.69-0.59-0.95c-0.26-0.27-0.57-0.48-0.93-0.63
			c-0.36-0.15-0.77-0.23-1.22-0.23c-0.59,0-1.14,0.13-1.64,0.38c-0.5,0.25-0.94,0.59-1.3,1c-0.36,0.42-0.65,0.89-0.86,1.43
			c-0.21,0.54-0.31,1.08-0.31,1.64c0,0.43,0.07,0.83,0.21,1.19c0.14,0.36,0.33,0.68,0.59,0.95c0.26,0.27,0.57,0.48,0.93,0.63
			c0.36,0.15,0.77,0.23,1.22,0.23C382.54,153.73,383.09,153.6,383.59,153.35z"/>
		<path class="st3" d="M403.29,145.5h2.17c0.75,0,1.43,0.1,2.03,0.31c0.6,0.21,1.09,0.5,1.49,0.89c0.65,0.65,0.98,1.51,0.98,2.58
			c0,0.69-0.12,1.34-0.36,1.93c-0.24,0.59-0.59,1.12-1.05,1.58c-0.54,0.54-1.2,0.96-1.99,1.26c-0.79,0.3-1.66,0.45-2.62,0.45h-3.05
			L403.29,145.5z M404.06,153.56c0.75,0,1.45-0.12,2.08-0.36c0.63-0.24,1.18-0.59,1.64-1.05c0.36-0.36,0.64-0.78,0.84-1.25
			c0.2-0.48,0.3-0.99,0.3-1.55c0-0.84-0.25-1.51-0.76-1.99c-0.61-0.61-1.52-0.91-2.74-0.91h-1.34l-1.92,7.13H404.06z"/>
		<path class="st3" d="M417.75,145.5h6.44l-0.26,0.93h-5.43l-0.82,3.07h4.85l-0.26,0.93h-4.84l-0.85,3.15h5.49l-0.24,0.93h-6.51
			L417.75,145.5z"/>
		<path class="st3" d="M437.86,154.19c-0.62-0.3-1.12-0.71-1.5-1.25l0.77-0.6c0.39,0.46,0.81,0.81,1.27,1.05
			c0.46,0.24,1.03,0.35,1.7,0.35c0.33,0,0.63-0.04,0.91-0.13c0.28-0.09,0.52-0.2,0.72-0.35c0.2-0.15,0.36-0.32,0.48-0.53
			c0.12-0.21,0.17-0.43,0.17-0.68c0-0.17-0.03-0.33-0.1-0.47c-0.06-0.14-0.17-0.28-0.31-0.41c-0.14-0.13-0.33-0.26-0.57-0.38
			c-0.24-0.12-0.53-0.26-0.87-0.39c-0.41-0.16-0.77-0.33-1.08-0.49c-0.31-0.16-0.57-0.34-0.77-0.52c-0.21-0.18-0.36-0.39-0.46-0.62
			c-0.1-0.23-0.15-0.49-0.15-0.78c0-0.37,0.08-0.72,0.25-1.04c0.16-0.32,0.39-0.6,0.69-0.83c0.3-0.23,0.65-0.41,1.05-0.55
			c0.4-0.13,0.85-0.2,1.34-0.2c0.7,0,1.32,0.12,1.86,0.37c0.54,0.25,0.98,0.57,1.32,0.98l-0.75,0.67c-0.33-0.36-0.7-0.64-1.11-0.83
			c-0.42-0.19-0.89-0.29-1.42-0.29c-0.33,0-0.64,0.04-0.91,0.13c-0.27,0.09-0.5,0.2-0.68,0.35c-0.18,0.15-0.33,0.32-0.42,0.51
			c-0.1,0.19-0.15,0.39-0.15,0.59c0,0.18,0.04,0.34,0.11,0.49c0.07,0.15,0.19,0.28,0.35,0.41c0.16,0.13,0.37,0.25,0.62,0.37
			c0.25,0.12,0.55,0.25,0.91,0.39c0.39,0.15,0.72,0.3,1.02,0.46c0.29,0.16,0.53,0.33,0.73,0.52c0.19,0.19,0.34,0.4,0.44,0.62
			c0.1,0.23,0.15,0.49,0.15,0.78c0,0.4-0.09,0.76-0.26,1.1c-0.18,0.33-0.42,0.62-0.72,0.86c-0.3,0.24-0.66,0.43-1.08,0.57
			c-0.42,0.14-0.86,0.21-1.34,0.21C439.2,154.63,438.48,154.48,437.86,154.19z"/>
		<path class="st3" d="M451.79,145.5h1.02l-2.42,9h-1.02L451.79,145.5z"/>
		<path class="st3" d="M461.82,146.44h-3.04l0.26-0.94h7.09l-0.26,0.94h-3.04l-2.16,8.06h-1.02L461.82,146.44z"/>
		<path class="st3" d="M472.37,145.5h6.44l-0.26,0.93h-5.43l-0.82,3.07h4.85l-0.26,0.93h-4.84l-0.85,3.15h5.49l-0.24,0.93h-6.51
			L472.37,145.5z"/>
		<path class="st3" d="M484.13,154.19c-0.62-0.3-1.12-0.71-1.5-1.25l0.77-0.6c0.39,0.46,0.81,0.81,1.27,1.05
			c0.46,0.24,1.03,0.35,1.7,0.35c0.33,0,0.63-0.04,0.91-0.13c0.28-0.09,0.52-0.2,0.72-0.35c0.2-0.15,0.36-0.32,0.48-0.53
			c0.12-0.21,0.17-0.43,0.17-0.68c0-0.17-0.03-0.33-0.1-0.47c-0.06-0.14-0.17-0.28-0.31-0.41c-0.14-0.13-0.33-0.26-0.57-0.38
			c-0.24-0.12-0.53-0.26-0.87-0.39c-0.41-0.16-0.77-0.33-1.08-0.49c-0.31-0.16-0.57-0.34-0.77-0.52c-0.21-0.18-0.36-0.39-0.46-0.62
			c-0.1-0.23-0.15-0.49-0.15-0.78c0-0.37,0.08-0.72,0.25-1.04c0.16-0.32,0.39-0.6,0.69-0.83c0.3-0.23,0.65-0.41,1.05-0.55
			c0.4-0.13,0.85-0.2,1.34-0.2c0.7,0,1.32,0.12,1.86,0.37c0.54,0.25,0.98,0.57,1.32,0.98l-0.75,0.67c-0.33-0.36-0.7-0.64-1.11-0.83
			c-0.42-0.19-0.89-0.29-1.42-0.29c-0.33,0-0.64,0.04-0.91,0.13c-0.27,0.09-0.5,0.2-0.68,0.35c-0.18,0.15-0.33,0.32-0.42,0.51
			c-0.1,0.19-0.15,0.39-0.15,0.59c0,0.18,0.04,0.34,0.11,0.49c0.07,0.15,0.19,0.28,0.35,0.41c0.16,0.13,0.37,0.25,0.62,0.37
			c0.25,0.12,0.55,0.25,0.91,0.39c0.39,0.15,0.72,0.3,1.02,0.46c0.29,0.16,0.53,0.33,0.73,0.52c0.19,0.19,0.34,0.4,0.44,0.62
			c0.1,0.23,0.15,0.49,0.15,0.78c0,0.4-0.09,0.76-0.26,1.1c-0.18,0.33-0.42,0.62-0.72,0.86c-0.3,0.24-0.66,0.43-1.08,0.57
			c-0.42,0.14-0.86,0.21-1.34,0.21C485.47,154.63,484.74,154.48,484.13,154.19z"/>
	</g>
</g>
</svg>
