<?xml version="1.0" encoding="utf-8"?>
<!-- Generator: Adobe Illustrator 25.0.0, SVG Export Plug-In . SVG Version: 6.00 Build 0)  -->
<svg version="1.1" id="Layer_1" xmlns="http://www.w3.org/2000/svg" xmlns:xlink="http://www.w3.org/1999/xlink" x="0px" y="0px"
	 viewBox="0 0 500 160" style="enable-background:new 0 0 500 160;" xml:space="preserve">
<style type="text/css">
	.st0{display:none;}
	.st1{fill:#0473AA;}
	.st2{opacity:0.25;fill:#252A2B;}
	.st3{fill:#0593C4;}
	.st4{opacity:0.25;fill:#1C1E1E;}
	.st5{font-family:'Gotham-BookItalic';}
	.st6{font-size:9.926px;}
</style>
<g id="Layer_2" class="st0">
</g>
<g id="SUBLOGO_500PX">
	<g id="seta_3_">
		<path class="st1" d="M155.35,4.55c0,0-5.93-1.73-14.58,7.41c-8.65,9.14-29.88,31.36-29.88,31.36s-5.69,8.03,1.06,14.84
			s25.32,19.34,25.32,19.34l60.09-51.95c0,0,10.17-8.12,1.38-10.44c-9.57-2.53-24.32-6.15-24.32-6.15"/>
		<g id="velocidade_net_5_">
			<path class="st3" d="M157.2,12.52c-1.07-2.88-4.25-4.36-7.17-3.34c-2.86,1-4.33,4.11-3.25,6.97c0.19,0.51,0.19,0.82-0.23,1.22
				c-2.11,2.08-4.19,4.18-6.24,6.31c0,0,0,0,0,0c-2.99,3.06-29.05,27.24-45.48,44.13c0.33,0.41,0.67,0.81,0.98,1.23
				c0.35,0.46,0.66,0.94,0.95,1.43c17.45-16.58,43.87-42.23,44.31-42.69c2.53-2.65,5.15-5.22,7.7-7.86
				c0.49-0.51,0.92-0.52,1.61-0.44c1.15,0.15,2.42,0.29,3.49-0.03C156.75,18.6,158.23,15.3,157.2,12.52z M153.96,15.16
				c-0.41,1.01-1.65,1.54-2.7,1.14c-1.13-0.43-1.7-1.7-1.25-2.81c0.42-1.05,1.62-1.57,2.67-1.15
				C153.79,12.78,154.39,14.09,153.96,15.16z"/>
			<path class="st3" d="M171.99,18.85c-1.07-2.88-4.25-4.36-7.17-3.34c-2.86,1-4.33,4.11-3.25,6.97c0.19,0.51,0.19,0.82-0.23,1.22
				c-2.11,2.08-4.19,4.18-6.24,6.31c0,0,0,0,0,0c-2.99,3.06-29.05,27.24-45.48,44.13c0.33,0.41,0.67,0.81,0.98,1.23
				c0.35,0.46,0.66,0.94,0.95,1.43c17.45-16.58,43.87-42.23,44.31-42.69c2.53-2.65,5.15-5.22,7.7-7.86c0.49-0.51,0.92-0.52,1.6-0.44
				c1.15,0.15,2.42,0.29,3.49-0.03C171.53,24.92,173.02,21.63,171.99,18.85z M168.74,21.48c-0.41,1.01-1.65,1.54-2.7,1.14
				c-1.13-0.43-1.7-1.7-1.25-2.81c0.42-1.05,1.62-1.57,2.67-1.15C168.58,19.11,169.18,20.42,168.74,21.48z"/>
			<path class="st3" d="M185.58,24.81c-1.07-2.88-4.25-4.36-7.17-3.34c-2.86,1-4.33,4.11-3.25,6.97c0.19,0.51,0.19,0.82-0.23,1.22
				c-2.11,2.08-4.19,4.18-6.24,6.31c0,0,0,0,0,0c-2.99,3.06-29.05,27.24-45.48,44.13c0.33,0.41,0.67,0.81,0.98,1.23
				c0.35,0.46,0.66,0.94,0.95,1.43c17.45-16.58,43.87-42.23,44.31-42.69c2.53-2.65,5.15-5.22,7.7-7.86
				c0.49-0.51,0.92-0.52,1.61-0.44c1.15,0.15,2.42,0.29,3.49-0.03C185.13,30.88,186.61,27.58,185.58,24.81z M182.33,27.44
				c-0.41,1.01-1.65,1.54-2.7,1.14c-1.13-0.43-1.7-1.7-1.25-2.81c0.42-1.05,1.62-1.57,2.67-1.15
				C182.17,25.06,182.77,26.37,182.33,27.44z"/>
		</g>
		<path class="st4" d="M186.88,137.22c-4.15-4.74-8.49-9.22-13.09-13.53c-4.5-4.22-8.9-8.44-13.13-12.92
			c-2.98-3.16-5.98-6.36-9.76-7.25c-2.98-0.71-5.05-2.25-6.32-4.21c-0.02,0.01-0.04,0.02-0.06,0.03c-4.71,2.93-11,1.38-14.26-2.85
			c-1.54-1.99-2.26-4.2-2.37-6.7c-0.14-3.1,1.44-5.51,3.24-7.82c1.82-2.33,3.57-3.03,6.14-4.47c0.13-0.07,1.34-1.3,1.47-1.37
			c-12.17-11.91-21.66-21.19-23.26-22.73c-5-4.82-2.62-12.14-2.62-12.14l-6.43,7.31c0.3,6.63,2.68,12.08,3.36,18.71
			c0.81,7.88-1.81,14.79-5.98,21.36c-1.77,2.79-4.17,4.32-6.71,4.89l48,55.53c1.27,1.47,3.26,2.12,5.15,1.69l40.42-9.16
			C189.44,140.11,188.15,138.67,186.88,137.22z"/>
		<path class="st3" d="M111.46,42.73c0,0-2.08,7.6,2.93,12.42c4.11,3.96,60.47,59.17,80.39,78.67c2.98,2.92,1.55,7.98-2.53,8.91
			l-43.08,9.77c-1.9,0.43-3.88-0.22-5.15-1.69L87.13,85.01c-0.1-0.11-0.2-0.22-0.31-0.32c-1.01-0.98-7.25-7.76,2.17-17.86"/>
	</g>
	<g id="c_3_">
		<path class="st1" d="M299.49,98.03c-3.57,3.57-7.63,6.24-12.18,8.03c-4.55,1.78-9.17,2.68-13.84,2.68
			c-4.68,0-9.26-0.89-13.75-2.68c-4.49-1.78-8.52-4.46-12.09-8.03c-3.45-3.57-6.09-7.53-7.93-11.9c-1.85-4.37-2.77-9.01-2.77-13.93
			c0-4.92,0.92-9.59,2.77-14.02c1.84-4.43,4.49-8.43,7.93-11.99c3.57-3.57,7.59-6.24,12.09-8.03c4.49-1.78,9.07-2.68,13.75-2.68
			c4.67,0,9.29,0.89,13.84,2.68c3.4,1.34,6.53,3.17,9.39,5.5c0.04-0.55,0.27-1.11,0.78-1.61c5.1-4.99,9.23-10.93,14.75-15.48
			c0.6-0.49,1.2-0.98,1.8-1.46c-0.02-0.02-0.05-0.02-0.07-0.04c-1.72-1.14-2.33-3.16-1.95-4.96c-1.78-0.65-3.71-0.93-5.57-1.32
			c-2.67-0.56-6.6-1.3-7.89-4c-0.31-0.65-0.4-1.36-0.25-2.01c-0.94-0.42-1.89-0.82-2.87-1.1c-5.49-1.59-11.15-2.15-16.84-2.53
			c-9.13-0.61-18.78-1.61-27.68,1.07c-2.25,0.68-4.42,1.61-6.4,2.88c-1.84,1.18-3.22,2.88-4.77,4.39c-3.6,3.52-8.03,6.4-12.04,9.44
			c-3.86,2.92-7.04,5.92-9.38,10.2c-2.09,3.8-4.23,7.97-5.52,12.11c-1.47,4.73-1.69,9.68-1.73,14.6c-0.02,2.78-0.22,5.41-0.89,8.13
			c-0.56,2.28-1.31,4.53-1.66,6.85c0.28,0.29,0.51,0.66,0.64,1.15c1.62,6.04,1.55,12.31,2.34,18.46c3.18,5.48,6.78,10.71,10.2,16.05
			c1.99,3.11,4.39,6.08,7.05,8.74c5.11,4.51,10.66,8.11,16.67,10.78c4.46,1.41,8.92,2.8,13.48,3.84c5.35,1.22,11.04,2.11,16.52,1.24
			c0.96-0.15,1.92,0.07,2.58,0.7c7.25-0.46,14.29-2.03,21.12-4.73c8.24-3.26,15.68-8.21,22.33-14.85L299.49,98.03z"/>
		<path class="st2" d="M254.75,134.77c5.74,1.69,11.56,3.24,17.5,3.99c2.66,0.33,5.34,0.48,8.01,0.61c1.47,0.07,2.93,0.09,4.37-0.06
			c-3.73-0.47-11.87-1.29-17.49-3.41c-22-8.29-28.07-23.79-32.13-41.31c-3.56-15.37-0.68-28.6,1.81-33.3
			c2.62-4.95,7.02-10.59,7.02-10.59c0.11-0.15,0.21-0.28,0.26-0.36c0.03-0.04,0.05-0.07,0.08-0.11c0.07-0.07,0.19-0.23,0.34-0.45
			c0.05-0.05,0.08-0.08,0.08-0.11c0.15-0.21,0.34-0.45,0.61-0.78c0.48-0.57,0.72-0.86,0.77-0.93c0.2-0.23,0.85-1,1.48-1.65
			c0,0,1.56-1.65,3.54-3.15c0.29-0.22,0.97-0.72,1.78-1.3c0.14-0.1,0.29-0.21,0.39-0.27c1.48-1.01,2.94-1.79,3.48-2.06
			c0,0,0.72-0.37,1.7-0.82c0.22-0.1,0.4-0.18,0.61-0.26c0.24-0.1,0.26-0.1,0.67-0.25c0.44-0.17,0.48-0.19,0.89-0.34
			c0.08-0.03,0.25-0.09,0.47-0.17c0.21-0.07,0.37-0.13,0.53-0.19c0.54-0.19,0.81-0.28,0.96-0.33c0,0,0.45-0.14,1.08-0.31
			c0.12-0.03,0.23-0.06,0.35-0.09c0.14-0.04,0.18-0.05,0.24-0.07c0.14-0.04,0.25-0.09,0.33-0.12c1.34-1.02,2.79-1.86,4.15-2.85
			c0.23-0.19,0.45-0.4,0.65-0.62c0.08-0.13,0.17-0.24,0.23-0.38c0.41-0.86,1.33-1.42,2.21-1.7c0.95-0.31,1.99-0.08,2.85,0.37
			c0.74,0.39,1.35,1.22,1.63,2.03c0.67-0.3,1.34-0.6,2.01-0.9c1.62-0.74,3.23-1.48,4.86-2.19c1.21-0.52,2.43-1.02,3.66-1.49
			c0.12-2.22,0.29-4.44,0.52-6.65c-0.37-1.93-0.6-3.91-0.72-5.96c-1.28-0.18-2.53-0.73-3.58-1.77c-1.51-1.49-1.98-3.58-1.82-5.75
			c-0.71-0.13-1.39-0.23-1.94-0.29c-3.72-0.4-7.48-0.53-11.21-0.1c-7.36,0.85-14.45,3.4-21.53,5.44c-1.27,0.37-2.33,0.07-3.11-0.56
			c-5.52,3-10.63,6.8-15.3,11.43c-6.4,6.34-11.29,13.56-14.67,21.67c-1.02,2.44-4.93,12.28-5.07,25.87
			c-0.05,4.6-0.06,14.24,4.31,25.56c6.67,17.28,18.9,26.57,22.79,29.44c0.83,0.61,7.66,5.58,16.38,8.93
			C252.27,135.07,253.34,134.36,254.75,134.77z"/>
		<path class="st3" d="M210.06,97.13c-4.37-11.32-4.36-20.96-4.31-25.56c0.14-13.59,4.06-23.44,5.07-25.87
			c3.38-8.11,8.27-15.33,14.67-21.67c6.64-6.58,14.14-11.52,22.51-14.81c8.36-3.29,16.88-4.94,25.56-4.94
			c8.67,0,17.16,1.65,25.46,4.94c8.3,3.29,15.78,8.23,22.42,14.81c-7.32,7.25-14.64,14.51-21.96,21.76
			c-3.13-2.54-14.31-10.98-29.65-10.01c-16.79,1.07-29.72,12.58-35.56,24.91c-6.39,13.5-3.45,26.23-1.81,33.3
			c3.66,15.82,14.62,34.71,32.13,41.31c7.53,2.84,19.57,3.36,19.5,3.8c-0.01,0.04-0.74,0.13-2.2,0.3c-0.5,0.06-1.24,0.14-2.1,0.22
			c-0.39,0.03-0.71,0.06-0.83,0.07c-0.29,0.02-0.67,0.05-1.11,0.08c-0.32,0.02-0.76,0.04-1.28,0.07c-0.49,0.02-1.16,0.05-1.98,0.06
			c-0.72,0.01-1.29,0.01-1.61,0.01c-0.41,0-1.15-0.01-2.05-0.04c-0.25-0.01-1.79-0.07-3.47-0.21c-3.34-0.29-6.31-0.84-6.82-0.94
			c-0.49-0.09-4.88-0.94-9.34-2.45c-9.7-3.29-17.57-9.03-18.47-9.69C228.95,123.7,216.73,114.42,210.06,97.13z"/>
	</g>
	<g>
		<g id="velocidade_net_4_">
			<path class="st1" d="M416.13,139.04h-81.55V3.62h31.54V107.9h50.01V139.04z"/>
			<path class="st3" d="M412.6,114.19c0.68-1.48,0.04-3.22-1.44-3.94c-1.45-0.7-3.16-0.08-3.83,1.39c-0.12,0.27-0.24,0.38-0.54,0.37
				c-1.57-0.01-3.14,0-4.7,0.03c0,0,0,0,0,0c-2.27,0.03-21.1-0.68-33.58-0.5c-9.33,0-9.27,0.55-9.31,0.83
				c-0.04,0.3,2.02,0.6,1.95,0.89c12.76,0.33,39.36,0.61,39.69,0.61c1.94-0.04,3.89-0.03,5.83-0.06c0.38-0.01,0.54,0.15,0.76,0.44
				c0.38,0.49,0.8,1.01,1.32,1.29C410.15,116.3,411.95,115.62,412.6,114.19z M410.4,113.96c-0.53,0.22-1.2-0.04-1.44-0.58
				c-0.26-0.59,0-1.27,0.58-1.52c0.55-0.24,1.19,0.02,1.43,0.57C411.23,113.01,410.96,113.72,410.4,113.96z"/>
			<path class="st3" d="M412.44,123.84c0.68-1.48,0.04-3.22-1.44-3.94c-1.45-0.7-3.16-0.08-3.83,1.39
				c-0.12,0.27-0.24,0.38-0.54,0.37c-1.57-0.01-3.14,0-4.7,0.03c0,0,0,0,0,0c-2.27,0.03-26.63-0.68-39.12-0.5
				c-0.03,0.28,2.48,1.43,2.4,1.72c12.76,0.33,35.12,0.61,35.46,0.61c1.94-0.04,3.89-0.03,5.83-0.06c0.38-0.01,0.54,0.15,0.76,0.44
				c0.38,0.49,0.8,1.01,1.32,1.29C410,125.94,411.79,125.26,412.44,123.84z M410.24,123.61c-0.53,0.22-1.2-0.04-1.44-0.58
				c-0.26-0.59,0-1.27,0.58-1.52c0.55-0.24,1.19,0.02,1.43,0.57C411.07,122.65,410.8,123.37,410.24,123.61z"/>
			<path class="st3" d="M412.57,134.63c0.68-1.48,0.04-3.22-1.44-3.94c-1.45-0.7-3.16-0.08-3.83,1.39
				c-0.12,0.27-0.24,0.38-0.54,0.37c-1.57-0.01-3.14,0-4.7,0.03c0,0,0,0,0,0c-2.27,0.03-21.1-0.68-33.58-0.5
				c-0.03,0.28-0.05,0.55-0.09,0.83c-0.04,0.3-0.1,0.6-0.18,0.89c12.76,0.33,32.27,0.61,32.6,0.61c1.94-0.04,3.89-0.03,5.83-0.06
				c0.38-0.01,0.54,0.15,0.76,0.44c0.38,0.49,0.8,1.01,1.32,1.29C410.12,136.73,411.91,136.05,412.57,134.63z M410.36,134.4
				c-0.53,0.22-1.2-0.04-1.44-0.58c-0.26-0.59,0-1.27,0.58-1.52c0.55-0.24,1.19,0.02,1.43,0.57
				C411.19,133.44,410.93,134.16,410.36,134.4z"/>
		</g>
		<path class="st3" d="M394.09,138.65l-59.5,0.39V3.62h31.54l-1.79,59.66l-1.2,43.82c0,5.76-1.18,11.2,3.96,16.34L394.09,138.65z"/>
	</g>
	<text transform="matrix(1 0 0 1 206.368 154.3966)" class="st3 st5 st6">CRIAÇÃO E MANUNTENÇÃO DE SITES</text>
</g>
</svg>
